<svg xmlns="http://www.w3.org/2000/svg" viewBox="0 0 24 24" fill="none" stroke="currentColor" stroke-width="2" stroke-linecap="round" stroke-linejoin="round">
  <path d="M21.4,12.2c-0.3-0.2-0.7-0.2-1,0L18,13.4V11c0-0.6-0.4-1-1-1h-3c-0.6,0-1,0.4-1,1v2.4l-2.4-1.2c-0.3-0.2-0.7-0.2-1,0L3.6,15.8c-0.3,0.2-0.4,0.6-0.2,0.9l1.6,3.2c0.2,0.3,0.5,0.5,0.9,0.5H18c0.4,0,0.7-0.2,0.9-0.5l1.6-3.2C21.8,12.8,21.7,12.4,21.4,12.2z"/>
  <path d="M7,12.5L12,10l5,2.5"/>
  <line x1="12" y1="10" x2="12" y2="20"/>
  <path d="M4,16v-2c0-1.1,0.9-2,2-2h12c1.1,0,2,0.9,2,2v2"/>
</svg>